<svg width="81" height="45" viewBox="0 0 81 45" fill="none" xmlns="http://www.w3.org/2000/svg">
<path d="M39.5869 33.48H37.3789L43.0669 16.512H45.2749L39.5869 33.48ZM62.578 32.064C61.554 32.88 60.314 33.288 58.858 33.288C57.402 33.288 56.154 32.88 55.114 32.064C54.09 31.232 53.354 30.208 52.906 28.992C52.458 27.776 52.234 26.448 52.234 25.008C52.234 23.568 52.458 22.24 52.906 21.024C53.354 19.808 54.09 18.792 55.114 17.976C56.154 17.16 57.402 16.752 58.858 16.752C60.314 16.752 61.554 17.16 62.578 17.976C63.602 18.792 64.338 19.808 64.786 21.024C65.25 22.24 65.482 23.568 65.482 25.008C65.482 26.448 65.25 27.776 64.786 28.992C64.338 30.208 63.602 31.232 62.578 32.064ZM56.458 28.824C56.97 29.784 57.77 30.264 58.858 30.264C59.946 30.264 60.738 29.784 61.234 28.824C61.746 27.864 62.002 26.592 62.002 25.008C62.002 23.424 61.746 22.16 61.234 21.216C60.738 20.256 59.946 19.776 58.858 19.776C57.77 19.776 56.97 20.256 56.458 21.216C55.946 22.16 55.69 23.424 55.69 25.008C55.69 26.592 55.946 27.864 56.458 28.824ZM77.9648 33H74.5568V29.688H66.9008V27L73.2608 16.992H77.9648V26.688H80.0288V29.688H77.9648V33ZM74.5568 26.688V20.016L70.2368 26.688H74.5568Z" fill="#1E2E36"/>
<path d="M17.1775 31.596C15.6415 32.82 13.7815 33.432 11.5975 33.432C9.4135 33.432 7.5415 32.82 5.9815 31.596C4.4455 30.348 3.3415 28.812 2.6695 26.988C1.9975 25.164 1.6615 23.172 1.6615 21.012C1.6615 18.852 1.9975 16.86 2.6695 15.036C3.3415 13.212 4.4455 11.688 5.9815 10.464C7.5415 9.24 9.4135 8.628 11.5975 8.628C13.7815 8.628 15.6415 9.24 17.1775 10.464C18.7135 11.688 19.8175 13.212 20.4895 15.036C21.1855 16.86 21.5335 18.852 21.5335 21.012C21.5335 23.172 21.1855 25.164 20.4895 26.988C19.8175 28.812 18.7135 30.348 17.1775 31.596ZM7.9975 26.736C8.7655 28.176 9.9655 28.896 11.5975 28.896C13.2295 28.896 14.4175 28.176 15.1615 26.736C15.9295 25.296 16.3135 23.388 16.3135 21.012C16.3135 18.636 15.9295 16.74 15.1615 15.324C14.4175 13.884 13.2295 13.164 11.5975 13.164C9.9655 13.164 8.7655 13.884 7.9975 15.324C7.2295 16.74 6.8455 18.636 6.8455 21.012C6.8455 23.388 7.2295 25.296 7.9975 26.736ZM35.1817 33H30.0697V15.576L26.0737 19.644L23.1577 16.584L30.7177 8.988H35.1817V33Z" fill="#1E2E36"/>
</svg>
