<svg width="32" height="32" viewBox="0 0 32 32" fill="none" xmlns="http://www.w3.org/2000/svg">
<path fill-rule="evenodd" clip-rule="evenodd" d="M15.447 1.32497C7.16294 1.38329 0.494657 8.14613 0.552978 16.4302C0.6113 24.7143 7.37414 31.3826 15.6582 31.3242C23.9423 31.2659 30.6106 24.5031 30.5522 16.219C30.4939 7.93493 23.7311 1.26665 15.447 1.32497Z" stroke="#1E2E36"/>
<path d="M19.3726 16.4282C19.3741 16.6386 19.2973 16.8495 19.1421 17.011L14.2583 22.0931C13.9477 22.4164 13.4403 22.4199 13.1252 22.101C12.8102 21.7823 12.8065 21.2618 13.1171 20.9385L17.4385 16.4418L13.0543 12.0064C12.7393 11.6875 12.7356 11.1671 13.0461 10.8439C13.3567 10.5205 13.864 10.5169 14.1792 10.836L19.1341 15.8487C19.2915 16.0081 19.3711 16.2179 19.3726 16.4282Z" fill="#1E2E36"/>
</svg>
