<svg width="102" height="31" viewBox="0 0 102 31" fill="none" xmlns="http://www.w3.org/2000/svg">
<g clip-path="url(#clip0_628_446)">
<path fill-rule="evenodd" clip-rule="evenodd" d="M11.25 26.4375C11.0774 26.4375 10.9375 26.5774 10.9375 26.75C10.9375 26.9226 11.0774 27.0625 11.25 27.0625C11.4226 27.0625 11.5625 26.9226 11.5625 26.75C11.5625 26.5774 11.4226 26.4375 11.25 26.4375ZM9.0625 26.75C9.0625 25.5419 10.0419 24.5625 11.25 24.5625C12.4581 24.5625 13.4375 25.5419 13.4375 26.75C13.4375 27.9581 12.4581 28.9375 11.25 28.9375C10.0419 28.9375 9.0625 27.9581 9.0625 26.75Z" fill="#1E2E36"/>
<path fill-rule="evenodd" clip-rule="evenodd" d="M25 26.4375C24.8274 26.4375 24.6875 26.5774 24.6875 26.75C24.6875 26.9226 24.8274 27.0625 25 27.0625C25.1726 27.0625 25.3125 26.9226 25.3125 26.75C25.3125 26.5774 25.1726 26.4375 25 26.4375ZM22.8125 26.75C22.8125 25.5419 23.7919 24.5625 25 24.5625C26.2081 24.5625 27.1875 25.5419 27.1875 26.75C27.1875 27.9581 26.2081 28.9375 25 28.9375C23.7919 28.9375 22.8125 27.9581 22.8125 26.75Z" fill="#1E2E36"/>
<path fill-rule="evenodd" clip-rule="evenodd" d="M0.3125 1.75C0.3125 1.23223 0.732233 0.8125 1.25 0.8125H6.25C6.69684 0.8125 7.08158 1.12786 7.16926 1.56601L8.26939 7.0625H28.75C29.0294 7.0625 29.2943 7.18713 29.4724 7.4024C29.6505 7.61768 29.7233 7.90116 29.6709 8.17563L27.6696 18.6701C27.5124 19.4615 27.0819 20.1723 26.4535 20.6781C25.8275 21.182 25.0449 21.4506 24.2418 21.4375H12.1083C11.3051 21.4506 10.5225 21.182 9.89656 20.6781C9.26841 20.1725 8.83804 19.4621 8.68069 18.6713L6.59069 8.2291C6.5834 8.20006 6.57746 8.17049 6.57295 8.14044L5.48155 2.6875H1.25C0.732233 2.6875 0.3125 2.26776 0.3125 1.75ZM8.64466 8.9375L10.5195 18.3049C10.591 18.6645 10.7867 18.9876 11.0723 19.2176C11.358 19.4475 11.7154 19.5698 12.082 19.5626L12.1 19.5625H24.25L24.268 19.5626C24.6346 19.5698 24.992 19.4475 25.2778 19.2176C25.5625 18.9883 25.7579 18.6664 25.8299 18.3079L25.8305 18.3049L27.6169 8.9375H8.64466Z" fill="#1E2E36"/>
</g>
<path d="M46.466 21H43.316L39.68 16.194L38.744 17.31V21H36.188V8.994H38.744V14.358L42.992 8.994H46.142L41.372 14.628L46.466 21ZM52.4756 21.216C50.6636 21.216 49.1636 20.634 47.9756 19.47C46.7996 18.294 46.2116 16.806 46.2116 15.006C46.2116 13.206 46.7996 11.724 47.9756 10.56C49.1636 9.384 50.6636 8.796 52.4756 8.796C54.2996 8.796 55.7996 9.378 56.9756 10.542C58.1636 11.706 58.7576 13.194 58.7576 15.006C58.7576 16.818 58.1636 18.306 56.9756 19.47C55.7996 20.634 54.2996 21.216 52.4756 21.216ZM49.8296 17.832C50.5016 18.576 51.3836 18.948 52.4756 18.948C53.5676 18.948 54.4496 18.576 55.1216 17.832C55.7936 17.088 56.1296 16.146 56.1296 15.006C56.1296 13.866 55.7936 12.924 55.1216 12.18C54.4496 11.436 53.5676 11.064 52.4756 11.064C51.3836 11.064 50.5016 11.436 49.8296 12.18C49.1696 12.924 48.8396 13.866 48.8396 15.006C48.8396 16.146 49.1696 17.088 49.8296 17.832ZM73.2953 8.994H75.8693V21H60.5513V8.994H63.1073V18.75H66.9233V8.994H69.4973V18.75H73.2953V8.994ZM80.7185 21H78.2525V8.994H80.8085V16.752L86.3705 8.994H88.9985V21H86.4425V12.954L80.7185 21ZM101.644 21H98.4937L94.8577 16.194L93.9217 17.31V21H91.3657V8.994H93.9217V14.358L98.1697 8.994H101.32L96.5497 14.628L101.644 21Z" fill="#1E2E36"/>
<defs>
<clipPath id="clip0_628_446">
<rect width="30" height="30" fill="white" transform="translate(0 0.5)"/>
</clipPath>
</defs>
</svg>
