<svg width="87" height="14" viewBox="0 0 87 14" fill="none" xmlns="http://www.w3.org/2000/svg">
<path d="M5.62295 13.216C4.26695 13.216 3.12095 12.928 2.18495 12.352C1.26095 11.776 0.798945 10.954 0.798945 9.886C0.798945 9.19 1.03895 8.572 1.51895 8.032C1.99895 7.48 2.61695 7.072 3.37295 6.808C1.78895 6.256 0.996945 5.314 0.996945 3.982C0.996945 2.938 1.45295 2.152 2.36495 1.624C3.28895 1.084 4.37495 0.813999 5.62295 0.813999C6.41495 0.813999 7.14695 0.915999 7.81895 1.12C8.49095 1.324 9.06095 1.678 9.52895 2.182C10.0089 2.674 10.2489 3.274 10.2489 3.982C10.2489 5.302 9.45095 6.244 7.85495 6.808C8.61095 7.072 9.22895 7.48 9.70895 8.032C10.2009 8.572 10.4469 9.19 10.4469 9.886C10.4469 10.942 9.97895 11.764 9.04295 12.352C8.10695 12.928 6.96695 13.216 5.62295 13.216ZM5.62295 5.8C6.11495 5.728 6.57095 5.572 6.99095 5.332C7.42295 5.092 7.63895 4.774 7.63895 4.378C7.63895 3.958 7.45295 3.628 7.08095 3.388C6.70895 3.136 6.22295 3.01 5.62295 3.01C5.02295 3.01 4.53095 3.136 4.14695 3.388C3.77495 3.628 3.58895 3.958 3.58895 4.378C3.58895 4.774 3.80495 5.092 4.23695 5.332C4.66895 5.572 5.13095 5.728 5.62295 5.8ZM5.62295 11.02C6.24695 11.02 6.77495 10.888 7.20695 10.624C7.63895 10.348 7.85495 9.994 7.85495 9.562C7.85495 9.118 7.60895 8.758 7.11695 8.482C6.63695 8.206 6.13895 8.032 5.62295 7.96C5.10695 8.032 4.60295 8.206 4.11095 8.482C3.63095 8.758 3.39095 9.118 3.39095 9.562C3.39095 9.994 3.60095 10.348 4.02095 10.624C4.45295 10.888 4.98695 11.02 5.62295 11.02ZM20.4244 13.198C18.9964 13.198 17.8204 12.784 16.8964 11.956L18.0304 9.994C18.6904 10.618 19.4884 10.93 20.4244 10.93C21.3604 10.93 22.0924 10.6 22.6204 9.94C23.1604 9.268 23.4304 8.47 23.4304 7.546V7.276C23.1184 7.708 22.6804 8.074 22.1164 8.374C21.5524 8.674 20.9584 8.824 20.3344 8.824C19.1944 8.824 18.2224 8.482 17.4184 7.798C16.6264 7.102 16.2304 6.142 16.2304 4.918C16.2304 3.73 16.6564 2.746 17.5084 1.966C18.3724 1.186 19.4824 0.795999 20.8384 0.795999C22.0024 0.795999 22.9804 1.084 23.7724 1.66C24.5764 2.236 25.1464 2.98 25.4824 3.892C25.8304 4.792 26.0044 5.83 26.0044 7.006C26.0044 8.854 25.5064 10.348 24.5104 11.488C23.5264 12.628 22.1644 13.198 20.4244 13.198ZM21.0544 6.628C22.0144 6.628 22.8004 6.256 23.4124 5.512C23.3524 4.84 23.1244 4.264 22.7284 3.784C22.3324 3.304 21.7444 3.064 20.9644 3.064C20.3164 3.064 19.8004 3.244 19.4164 3.604C19.0324 3.964 18.8404 4.372 18.8404 4.828C18.8404 5.416 19.0564 5.866 19.4884 6.178C19.9204 6.478 20.4424 6.628 21.0544 6.628ZM31.3756 13.198C29.9476 13.198 28.7716 12.784 27.8476 11.956L28.9816 9.994C29.6416 10.618 30.4396 10.93 31.3756 10.93C32.3116 10.93 33.0436 10.6 33.5716 9.94C34.1116 9.268 34.3816 8.47 34.3816 7.546V7.276C34.0696 7.708 33.6316 8.074 33.0676 8.374C32.5036 8.674 31.9096 8.824 31.2856 8.824C30.1456 8.824 29.1736 8.482 28.3696 7.798C27.5776 7.102 27.1816 6.142 27.1816 4.918C27.1816 3.73 27.6076 2.746 28.4596 1.966C29.3236 1.186 30.4336 0.795999 31.7896 0.795999C32.9536 0.795999 33.9316 1.084 34.7236 1.66C35.5276 2.236 36.0976 2.98 36.4336 3.892C36.7816 4.792 36.9556 5.83 36.9556 7.006C36.9556 8.854 36.4576 10.348 35.4616 11.488C34.4776 12.628 33.1156 13.198 31.3756 13.198ZM32.0056 6.628C32.9656 6.628 33.7516 6.256 34.3636 5.512C34.3036 4.84 34.0756 4.264 33.6796 3.784C33.2836 3.304 32.6956 3.064 31.9156 3.064C31.2676 3.064 30.7516 3.244 30.3676 3.604C29.9836 3.964 29.7916 4.372 29.7916 4.828C29.7916 5.416 30.0076 5.866 30.4396 6.178C30.8716 6.478 31.3936 6.628 32.0056 6.628ZM42.3268 13.198C40.8988 13.198 39.7228 12.784 38.7988 11.956L39.9328 9.994C40.5928 10.618 41.3908 10.93 42.3268 10.93C43.2628 10.93 43.9948 10.6 44.5228 9.94C45.0628 9.268 45.3328 8.47 45.3328 7.546V7.276C45.0208 7.708 44.5828 8.074 44.0188 8.374C43.4548 8.674 42.8608 8.824 42.2368 8.824C41.0968 8.824 40.1248 8.482 39.3208 7.798C38.5288 7.102 38.1328 6.142 38.1328 4.918C38.1328 3.73 38.5588 2.746 39.4108 1.966C40.2748 1.186 41.3848 0.795999 42.7408 0.795999C43.9048 0.795999 44.8828 1.084 45.6748 1.66C46.4788 2.236 47.0488 2.98 47.3848 3.892C47.7328 4.792 47.9068 5.83 47.9068 7.006C47.9068 8.854 47.4088 10.348 46.4128 11.488C45.4288 12.628 44.0668 13.198 42.3268 13.198ZM42.9568 6.628C43.9168 6.628 44.7028 6.256 45.3148 5.512C45.2548 4.84 45.0268 4.264 44.6308 3.784C44.2348 3.304 43.6468 3.064 42.8668 3.064C42.2188 3.064 41.7028 3.244 41.3188 3.604C40.9348 3.964 40.7428 4.372 40.7428 4.828C40.7428 5.416 40.9588 5.866 41.3908 6.178C41.8228 6.478 42.3448 6.628 42.9568 6.628ZM56.8934 13H54.3374V0.993999H62.8334V3.244H56.8934V13ZM67.1766 13H64.6206V0.993999H70.2366C71.4966 0.993999 72.4806 1.366 73.1886 2.11C73.9086 2.842 74.2686 3.76 74.2686 4.864C74.2686 5.956 73.9086 6.874 73.1886 7.618C72.4686 8.362 71.4846 8.734 70.2366 8.734H67.1766V13ZM69.8946 6.484C70.4106 6.484 70.8306 6.34 71.1546 6.052C71.4906 5.752 71.6586 5.356 71.6586 4.864C71.6586 4.372 71.4906 3.982 71.1546 3.694C70.8306 3.394 70.4106 3.244 69.8946 3.244H67.1766V6.484H69.8946ZM86.653 13H84.079V7.96H78.409V13H75.853V0.993999H78.409V5.71H84.079V0.993999H86.653V13Z" fill="#BCBDBB"/>
<path d="M0.168945 7.006H87.823V7.906H0.168945V7.006Z" fill="#BCBDBB"/>
</svg>
