<svg width="32" height="32" viewBox="0 0 32 32" fill="none" xmlns="http://www.w3.org/2000/svg">
<path fill-rule="evenodd" clip-rule="evenodd" d="M16.0586 1.00014C7.77443 0.967735 1.03248 7.65714 1.00007 15.9413C0.967661 24.2256 7.65707 30.9675 15.9413 30.9999C24.2255 31.0323 30.9674 24.3429 30.9998 16.0587C31.0322 7.7745 24.3428 1.03255 16.0586 1.00014Z" stroke="white"/>
<path d="M19.5212 16.1443C19.5204 16.3547 19.4413 16.5647 19.2844 16.7245L14.3452 21.7528C14.031 22.0727 13.5237 22.0707 13.2121 21.7484C12.9006 21.4262 12.9026 20.9057 13.2167 20.5858L17.5871 16.1367L13.2518 11.6536C12.9402 11.3312 12.9422 10.8108 13.2563 10.4911C13.5704 10.1711 14.0777 10.1731 14.3894 10.4955L19.2891 15.5622C19.4447 15.7233 19.522 15.934 19.5212 16.1443Z" fill="white"/>
</svg>
